<?xml version="1.0" encoding="utf-8"?>
<!-- Generator: Adobe Illustrator 22.0.1, SVG Export Plug-In . SVG Version: 6.00 Build 0)  -->
<svg version="1.1" id="Layer_1" xmlns="http://www.w3.org/2000/svg" xmlns:xlink="http://www.w3.org/1999/xlink" x="0px" y="0px"
	 viewBox="0 0 504 360" style="enable-background:new 0 0 504 360;" xml:space="preserve">
<style type="text/css">
	.st0{clip-path:url(#SVGID_1_);fill:none;stroke:#000000;stroke-width:0.6806;stroke-linejoin:bevel;stroke-miterlimit:10;}
	.st1{clip-path:url(#SVGID_1_);fill:none;stroke:#000000;stroke-width:1.3612;stroke-linejoin:bevel;stroke-miterlimit:10;}
	.st2{clip-path:url(#SVGID_1_);fill-rule:evenodd;clip-rule:evenodd;}
	.st3{clip-path:url(#SVGID_1_);fill:none;stroke:#000000;stroke-width:0.3403;stroke-linejoin:bevel;stroke-miterlimit:10;}
	
		.st4{clip-path:url(#SVGID_1_);fill:none;stroke:#000000;stroke-width:0.3403;stroke-miterlimit:10;stroke-dasharray:1.3612,1.3612;}
	.st5{clip-path:url(#SVGID_2_);}
	.st6{clip-path:url(#SVGID_3_);fill:none;stroke:#000000;stroke-width:0.3403;stroke-miterlimit:10;}
	.st7{clip-path:url(#SVGID_4_);fill-rule:evenodd;clip-rule:evenodd;fill:#FFFFFF;}
	.st8{clip-path:url(#SVGID_4_);fill:none;stroke:#000000;stroke-width:0.3403;stroke-miterlimit:10;}
	.st9{clip-path:url(#SVGID_5_);}
	.st10{font-family:'Fm';}
	.st11{font-size:12.8933px;}
	.st12{font-family:'Fn';}
	.st13{font-family:'Fi';}
	.st14{font-family:'Fj';}
	.st15{font-size:9.0252px;}
</style>
<g>
	<defs>
		<rect id="SVGID_11_" x="50.6" y="39.7" width="400.3" height="194.8"/>
	</defs>
	<clipPath id="SVGID_1_">
		<use xlink:href="#SVGID_11_"  style="overflow:visible;"/>
	</clipPath>
	<polyline class="st0" points="169.5,203.6 169.6,203.6 169.8,203.4 170,203.1 170.5,202.8 171.1,202.2 172,201.4 173.1,200.4 
		174.5,199.2 176.2,197.6 178.2,195.9 180.4,193.9 183,191.6 185.8,189.1 188.9,186.4 192.2,183.4 195.8,180.2 199.6,177 
		203.6,173.5 207.7,169.9 212,166.3 216.4,162.5 220.8,158.8 225.2,155 229.7,151.2 234.2,147.5 238.6,143.9 243,140.3 247.3,136.8 
		251.6,133.4 255.7,130.1 259.8,127 263.7,123.9 267.6,121.1 271.3,118.3 274.9,115.7 278.4,113.2 281.7,110.9 285,108.7 
		288.1,106.7 291.1,104.8 294.1,103.1 296.9,101.4 299.6,100 302.2,98.7 304.8,97.5 307.2,96.4 309.6,95.5 311.9,94.6 314.2,93.9 
		316.4,93.3 318.5,92.9 320.6,92.5 322.7,92.2 324.7,92.1 326.6,92 328.8,92.1 331.1,92.3 333.2,92.6 335.3,93.2 337.5,93.8 
		339.5,94.6 341.6,95.6 343.6,96.7 345.6,98 347.6,99.5 349.6,101.2 351.6,103.1 353.6,105.1 355.7,107.4 357.7,109.8 359.8,112.4 
		361.8,115.2 363.9,118.3 366.1,121.5 368.3,124.9 370.5,128.5 372.7,132.3 374.9,136.2 377.2,140.3 379.4,144.5 381.7,148.8 
		383.9,153.1 386.1,157.5 388.3,161.9 390.4,166.3 392.4,170.5 394.4,174.7 396.2,178.6 397.9,182.4 399.6,185.9 401,189.1 
		402.3,192 403.5,194.6 404.4,196.8 405.2,198.7 405.9,200.2 406.4,201.4 406.8,202.3 407,202.9 407.2,203.3 407.3,203.5 
		407.3,203.6 	"/>
	<polyline class="st1" points="85.8,199.2 86,199.2 86.3,199.1 86.8,199 87.7,198.8 88.8,198.5 90.4,198.2 92.3,197.7 94.5,197.2 
		97.1,196.5 99.8,195.8 102.7,195 105.7,194.2 108.8,193.3 111.9,192.5 114.9,191.6 117.8,190.6 120.7,189.7 123.4,188.8 126,187.8 
		128.4,186.9 130.6,185.9 132.8,185 134.8,184 136.6,183 138.3,182 140,180.9 141.5,179.8 142.9,178.7 144.3,177.5 145.6,176.3 
		146.8,175 148,173.6 149.1,172.2 150.2,170.7 151.3,169.2 152.3,167.6 153.4,166 154.4,164.2 155.4,162.5 156.4,160.6 157.4,158.8 
		158.5,156.9 159.5,155 160.6,153.1 161.7,151.1 162.7,149.1 163.8,147.2 164.9,145.2 166.1,143.4 167.3,141.5 168.5,139.7 
		169.7,137.9 170.9,136.2 172.2,134.6 173.5,133 174.9,131.5 176.3,130.2 177.7,128.8 179.2,127.6 180.7,126.5 182.3,125.4 
		184,124.5 185.7,123.6 187.3,122.9 189,122.3 190.7,121.7 192.5,121.2 194.4,120.8 196.4,120.4 198.4,119.9 200.6,119.6 
		202.8,119.4 205,119.1 207.4,118.9 209.7,118.8 212.2,118.6 214.7,118.5 217.3,118.4 219.8,118.4 222.4,118.3 225.1,118.2 
		227.7,118.2 230.4,118.2 233,118.2 235.6,118.1 238.2,118.1 240.7,118.1 243.2,118 245.7,117.9 248.1,117.8 250.4,117.7 
		252.8,117.6 255,117.4 257.2,117.2 259.3,116.9 261.4,116.7 263.4,116.4 265.3,115.9 267.2,115.5 269.2,115 271.2,114.4 
		273.2,113.7 275,113 276.9,112.1 278.8,111.2 280.6,110.3 282.4,109.3 284.2,108.2 286,107.1 287.7,105.9 289.5,104.6 291.2,103.3 
		292.9,102 294.6,100.6 296.2,99.3 297.9,97.9 299.5,96.5 301.1,95 302.6,93.6 304.2,92.2 305.7,90.8 307.2,89.4 308.6,88 
		310.1,86.7 311.5,85.4 312.9,84.2 314.4,82.9 315.8,81.8 317.2,80.6 318.6,79.5 320.1,78.5 321.5,77.4 323,76.4 324.6,75.5 
		326.1,74.5 327.8,73.7 329.5,72.8 331.2,72 332.9,71.2 334.7,70.5 336.6,69.8 338.5,69.1 340.3,68.6 342.3,68 344.2,67.6 
		346.2,67.2 348.2,66.8 350.1,66.5 352.1,66.3 354.1,66.2 356.1,66 358,66 359.9,66.2 361.8,66.3 363.6,66.5 365.4,66.7 367.1,67.2 
		368.8,67.6 370.5,68 372.1,68.6 373.7,69.3 375.3,70 376.8,70.7 378.2,71.6 379.6,72.4 381,73.4 382.4,74.4 383.7,75.6 385.1,76.9 
		386.5,78.2 388,79.8 389.4,81.4 390.9,83.2 392.4,85.1 394,87.2 395.7,89.3 397.4,91.8 399.1,94.2 400.9,96.9 402.7,99.6 
		404.5,102.4 406.3,105.3 408.2,108.2 410,111.1 411.7,113.8 413.3,116.5 414.8,118.9 416.1,121.2 417.3,123.2 418.3,124.8 
		419,126.2 419.7,127.2 420.1,127.9 420.3,128.4 420.5,128.6 420.5,128.7 	"/>
	<path class="st2" d="M288.4,107.3c0,1-0.8,1.8-1.8,1.8c-1,0-1.8-0.8-1.8-1.8c0-1,0.8-1.8,1.8-1.8
		C287.6,105.6,288.4,106.3,288.4,107.3"/>
	<path class="st3" d="M288.4,107.3c0,1-0.8,1.8-1.8,1.8s-1.8-0.8-1.8-1.8c0-1,0.8-1.8,1.8-1.8S288.4,106.3,288.4,107.3z"/>
	<path class="st2" d="M329.8,92c0,1-0.8,1.8-1.8,1.8c-1,0-1.8-0.8-1.8-1.8c0-1,0.8-1.8,1.8-1.8C329,90.3,329.8,91.1,329.8,92"/>
	<path class="st3" d="M329.8,92c0,1-0.8,1.8-1.8,1.8c-1,0-1.8-0.8-1.8-1.8c0-1,0.8-1.8,1.8-1.8C329,90.3,329.8,91.1,329.8,92z"/>
	<path class="st2" d="M329.8,73.6c0,1-0.8,1.8-1.8,1.8c-1,0-1.8-0.8-1.8-1.8c0-1,0.8-1.8,1.8-1.8C329,71.8,329.8,72.6,329.8,73.6"/>
	<path class="st3" d="M329.8,73.6c0,1-0.8,1.8-1.8,1.8c-1,0-1.8-0.8-1.8-1.8c0-1,0.8-1.8,1.8-1.8C329,71.8,329.8,72.6,329.8,73.6z"
		/>
	<line class="st2" x1="72.6" y1="92" x2="328.1" y2="92"/>
	<line class="st4" x1="72.6" y1="92" x2="328.1" y2="92"/>
	<line class="st2" x1="286.7" y1="107.3" x2="286.7" y2="225.6"/>
	<line class="st4" x1="286.7" y1="107.3" x2="286.7" y2="225.6"/>
	<line class="st2" x1="72.6" y1="107.3" x2="286.7" y2="107.3"/>
	<line class="st4" x1="72.6" y1="107.3" x2="286.7" y2="107.3"/>
	<line class="st2" x1="328.1" y1="73.6" x2="328.1" y2="225.6"/>
	<line class="st4" x1="328.1" y1="73.6" x2="328.1" y2="225.6"/>
	<line class="st2" x1="72.6" y1="73.6" x2="328.1" y2="73.6"/>
	<line class="st4" x1="72.6" y1="73.6" x2="328.1" y2="73.6"/>
</g>
<g>
	<defs>
		<path id="SVGID_13_" d="M74.4,39.8h-3.5v8.9l1.8-7l1.8,7V39.8z M443.4,227.4v-3.5h-8.9l7,1.8l-7,1.8H443.4z M50.6,39.7v194.8
			h400.3V39.7H50.6z"/>
	</defs>
	<clipPath id="SVGID_2_">
		<use xlink:href="#SVGID_13_"  style="overflow:visible;"/>
	</clipPath>
	<g class="st5">
		<defs>
			<rect id="SVGID_15_" x="-144.7" y="-121.8" width="792" height="1024.9"/>
		</defs>
		<clipPath id="SVGID_3_">
			<use xlink:href="#SVGID_15_"  style="overflow:visible;"/>
		</clipPath>
		<polyline class="st6" points="72.6,40.7 72.6,225.6 442.6,225.6 		"/>
	</g>
</g>
<g>
	<defs>
		<rect id="SVGID_17_" x="50.6" y="39.7" width="400.3" height="194.8"/>
	</defs>
	<clipPath id="SVGID_4_">
		<use xlink:href="#SVGID_17_"  style="overflow:visible;"/>
	</clipPath>
	<polyline class="st7" points="74.4,48.7 72.6,41.6 70.9,48.7 74.4,48.7 	"/>
	<polygon class="st8" points="74.4,48.7 72.6,41.6 70.9,48.7 	"/>
	<polyline class="st7" points="434.6,227.4 441.6,225.6 434.6,223.9 434.6,227.4 	"/>
	<polygon class="st8" points="434.6,227.4 441.6,225.6 434.6,223.9 	"/>
</g>
<g>
	<defs>
		<rect id="SVGID_19_" x="-144.7" y="-121.8" width="792" height="1024.9"/>
	</defs>
	<clipPath id="SVGID_5_">
		<use xlink:href="#SVGID_19_"  style="overflow:visible;"/>
	</clipPath>
	<g class="st9">
		<text transform="matrix(1 0 0 1 81.6035 211.2876)" class="st10 st11">L</text>
	</g>
	<g class="st9">
		<text transform="matrix(1 0 0 1 90.458 211.2876)" class="st12 st11">(</text>
	</g>
	<g class="st9">
		<text transform="matrix(1 0 0 1 95.4238 211.2876)" class="st10 st11">θ</text>
	</g>
	<g class="st9">
		<text transform="matrix(1 0 0 1 101.7949 211.2876)" class="st12 st11">)</text>
	</g>
	<g class="st9">
		<text transform="matrix(1 0 0 1 178.5166 211.8638)" class="st10 st11">l</text>
	</g>
	<g class="st9">
		<text transform="matrix(1 0 0 1 182.3516 211.8638)" class="st12 st11">(</text>
	</g>
	<g class="st9">
		<text transform="matrix(1 0 0 1 187.3711 211.8638)" class="st10 st11">θ</text>
	</g>
	<g class="st9">
		<text transform="matrix(1 0 0 1 193.416 211.8638)" class="st13 st11">|</text>
	</g>
	<g class="st9">
		<text transform="matrix(1 0 0 1 197.0029 211.8638)" class="st10 st11">θ</text>
	</g>
	<path class="st9" d="M208.3,213.7v-0.2c0.5-0.1,0.6-0.1,0.6-0.7v-1.5c0-0.6-0.2-1-0.8-1c-0.3,0-0.7,0.2-1,0.5c0,0.1,0,0.2,0,0.4
		v1.8c0,0.6,0.1,0.6,0.6,0.7v0.2h-1.9v-0.2c0.6-0.1,0.6-0.1,0.6-0.7v-1.6c0-0.7-0.2-1-0.8-1c-0.4,0-0.7,0.2-1,0.5v2.1
		c0,0.6,0.1,0.6,0.5,0.7v0.2h-1.9v-0.2c0.6-0.1,0.7-0.1,0.7-0.7v-1.9c0-0.6,0-0.6-0.6-0.7V210c0.4-0.1,0.9-0.2,1.3-0.4v0.7
		c0.2-0.1,0.4-0.3,0.7-0.5c0.2-0.1,0.5-0.2,0.7-0.2c0.4,0,0.8,0.3,1,0.7c0.3-0.2,0.5-0.4,0.7-0.5c0.2-0.1,0.4-0.2,0.7-0.2
		c0.7,0,1.1,0.5,1.1,1.4v1.7c0,0.6,0.1,0.6,0.6,0.7v0.2H208.3z"/>
	<g class="st9">
		<text transform="matrix(1 0 0 1 210.4531 211.8638)" class="st12 st11">)</text>
	</g>
	<g class="st9">
		<text transform="matrix(1 0 0 1 74.6777 69.5298)" class="st10 st11">L</text>
	</g>
	<g class="st9">
		<text transform="matrix(1 0 0 1 83.458 69.5298)" class="st12 st11">(</text>
	</g>
	<g class="st9">
		<text transform="matrix(1 0 0 1 88.4756 69.5298)" class="st10 st11">θ</text>
	</g>
	<path class="st9" d="M99.8,71.4v-0.2c0.5-0.1,0.6-0.1,0.6-0.7v-1.5c0-0.6-0.2-1-0.8-1c-0.3,0-0.7,0.2-1,0.5c0,0.1,0,0.2,0,0.4v1.8
		c0,0.6,0.1,0.6,0.6,0.7v0.2h-1.9v-0.2c0.6-0.1,0.6-0.1,0.6-0.7v-1.6c0-0.7-0.2-1-0.8-1c-0.4,0-0.7,0.2-1,0.5v2.1
		c0,0.6,0.1,0.6,0.5,0.7v0.2h-1.9v-0.2c0.6-0.1,0.7-0.1,0.7-0.7v-1.9c0-0.6,0-0.6-0.6-0.7v-0.2c0.4-0.1,0.9-0.2,1.3-0.4V68
		c0.2-0.1,0.4-0.3,0.7-0.5c0.2-0.1,0.5-0.2,0.7-0.2c0.4,0,0.8,0.3,1,0.7c0.3-0.2,0.5-0.4,0.7-0.5c0.2-0.1,0.4-0.2,0.7-0.2
		c0.7,0,1.1,0.5,1.1,1.4v1.7c0,0.6,0.1,0.6,0.6,0.7v0.2H99.8z"/>
	<g class="st9">
		<text transform="matrix(1 0 0 1 101.9141 71.3882)" class="st14 st15">+1</text>
	</g>
	<g class="st9">
		<text transform="matrix(1 0 0 1 114.958 69.5298)" class="st12 st11">)</text>
	</g>
	<g class="st9">
		<text transform="matrix(1 0 0 1 38.2402 137.3052)" class="st10 st11">L</text>
	</g>
	<g class="st9">
		<text transform="matrix(1 0 0 1 47.0918 137.3052)" class="st12 st11">(</text>
	</g>
	<g class="st9">
		<text transform="matrix(1 0 0 1 52.0654 137.3052)" class="st10 st11">θ</text>
	</g>
	<g class="st9">
		<text transform="matrix(1 0 0 1 58.4248 137.3052)" class="st12 st11">)</text>
	</g>
	<g class="st9">
		<text transform="matrix(1 0 0 1 75.2295 88.1226)" class="st10 st11">l</text>
	</g>
	<g class="st9">
		<text transform="matrix(1 0 0 1 79.0752 88.1226)" class="st12 st11">(</text>
	</g>
	<g class="st9">
		<text transform="matrix(1 0 0 1 84.0908 88.1226)" class="st10 st11">θ</text>
	</g>
	<path class="st9" d="M95.4,90v-0.2c0.5-0.1,0.6-0.1,0.6-0.7v-1.5c0-0.6-0.2-1-0.8-1c-0.3,0-0.7,0.2-1,0.5c0,0.1,0,0.2,0,0.4v1.8
		c0,0.6,0.1,0.6,0.6,0.7V90h-1.9v-0.2c0.6-0.1,0.6-0.1,0.6-0.7v-1.6c0-0.7-0.2-1-0.8-1c-0.4,0-0.7,0.2-1,0.5V89
		c0,0.6,0.1,0.6,0.5,0.7V90h-1.9v-0.2c0.6-0.1,0.7-0.1,0.7-0.7v-1.9c0-0.6,0-0.6-0.6-0.7v-0.2c0.4-0.1,0.9-0.2,1.3-0.4v0.7
		c0.2-0.1,0.4-0.3,0.7-0.5c0.2-0.1,0.5-0.2,0.7-0.2c0.4,0,0.8,0.3,1,0.7c0.3-0.2,0.5-0.4,0.7-0.5c0.2-0.1,0.4-0.2,0.7-0.2
		c0.7,0,1.1,0.5,1.1,1.4V89c0,0.6,0.1,0.6,0.6,0.7V90H95.4z"/>
	<g class="st9">
		<text transform="matrix(1 0 0 1 97.5342 89.9829)" class="st14 st15">+1</text>
	</g>
	<g class="st9">
		<text transform="matrix(1 0 0 1 110.5918 88.1226)" class="st13 st11">|</text>
	</g>
	<g class="st9">
		<text transform="matrix(1 0 0 1 114.1738 88.1226)" class="st10 st11">θ</text>
	</g>
	<path class="st9" d="M125.5,90v-0.2c0.5-0.1,0.6-0.1,0.6-0.7v-1.5c0-0.6-0.2-1-0.8-1c-0.3,0-0.7,0.2-1,0.5c0,0.1,0,0.2,0,0.4v1.8
		c0,0.6,0.1,0.6,0.6,0.7V90H123v-0.2c0.6-0.1,0.6-0.1,0.6-0.7v-1.6c0-0.7-0.2-1-0.8-1c-0.4,0-0.7,0.2-1,0.5V89
		c0,0.6,0.1,0.6,0.5,0.7V90h-1.9v-0.2c0.6-0.1,0.7-0.1,0.7-0.7v-1.9c0-0.6,0-0.6-0.6-0.7v-0.2c0.4-0.1,0.9-0.2,1.3-0.4v0.7
		c0.2-0.1,0.4-0.3,0.7-0.5c0.2-0.1,0.5-0.2,0.7-0.2c0.4,0,0.8,0.3,1,0.7c0.3-0.2,0.5-0.4,0.7-0.5c0.2-0.1,0.4-0.2,0.7-0.2
		c0.7,0,1.1,0.5,1.1,1.4V89c0,0.6,0.1,0.6,0.6,0.7V90H125.5z"/>
	<g class="st9">
		<text transform="matrix(1 0 0 1 127.6182 88.1226)" class="st12 st11">)</text>
	</g>
	<g class="st9">
		<text transform="matrix(1 0 0 1 75.2295 103.4038)" class="st10 st11">L</text>
	</g>
	<g class="st9">
		<text transform="matrix(1 0 0 1 84.0098 103.4038)" class="st12 st11">(</text>
	</g>
	<g class="st9">
		<text transform="matrix(1 0 0 1 89.0234 103.4038)" class="st10 st11">θ</text>
	</g>
	<path class="st9" d="M100.3,105.3V105c0.5-0.1,0.6-0.1,0.6-0.7v-1.5c0-0.6-0.2-1-0.8-1c-0.3,0-0.7,0.2-1,0.5c0,0.1,0,0.2,0,0.4v1.8
		c0,0.6,0.1,0.6,0.6,0.7v0.2h-1.9V105c0.6-0.1,0.6-0.1,0.6-0.7v-1.6c0-0.7-0.2-1-0.8-1c-0.4,0-0.7,0.2-1,0.5v2.1
		c0,0.6,0.1,0.6,0.5,0.7v0.2h-1.9V105c0.6-0.1,0.7-0.1,0.7-0.7v-1.9c0-0.6,0-0.6-0.6-0.7v-0.2c0.4-0.1,0.9-0.2,1.3-0.4v0.7
		c0.2-0.1,0.4-0.3,0.7-0.5c0.2-0.1,0.5-0.2,0.7-0.2c0.4,0,0.8,0.3,1,0.7c0.3-0.2,0.5-0.4,0.7-0.5c0.2-0.1,0.4-0.2,0.7-0.2
		c0.7,0,1.1,0.5,1.1,1.4v1.7c0,0.6,0.1,0.6,0.6,0.7v0.2H100.3z"/>
	<g class="st9">
		<text transform="matrix(1 0 0 1 102.4619 103.4038)" class="st12 st11">)</text>
	</g>
	<g class="st9">
		<text transform="matrix(1 0 0 1 110.4033 103.4038)" class="st12 st11">=</text>
	</g>
	<g class="st9">
		<text transform="matrix(1 0 0 1 123.3643 103.4038)" class="st10 st11">l</text>
	</g>
	<g class="st9">
		<text transform="matrix(1 0 0 1 127.21 103.4038)" class="st12 st11">(</text>
	</g>
	<g class="st9">
		<text transform="matrix(1 0 0 1 132.2207 103.4038)" class="st10 st11">θ</text>
	</g>
	<path class="st9" d="M143.5,105.3V105c0.5-0.1,0.6-0.1,0.6-0.7v-1.5c0-0.6-0.2-1-0.8-1c-0.3,0-0.7,0.2-1,0.5c0,0.1,0,0.2,0,0.4v1.8
		c0,0.6,0.1,0.6,0.6,0.7v0.2H141V105c0.6-0.1,0.6-0.1,0.6-0.7v-1.6c0-0.7-0.2-1-0.8-1c-0.4,0-0.7,0.2-1,0.5v2.1
		c0,0.6,0.1,0.6,0.5,0.7v0.2h-1.9V105c0.6-0.1,0.7-0.1,0.7-0.7v-1.9c0-0.6,0-0.6-0.6-0.7v-0.2c0.4-0.1,0.9-0.2,1.3-0.4v0.7
		c0.2-0.1,0.4-0.3,0.7-0.5c0.2-0.1,0.5-0.2,0.7-0.2c0.4,0,0.8,0.3,1,0.7c0.3-0.2,0.5-0.4,0.7-0.5c0.2-0.1,0.4-0.2,0.7-0.2
		c0.7,0,1.1,0.5,1.1,1.4v1.7c0,0.6,0.1,0.6,0.6,0.7v0.2H143.5z"/>
	<g class="st9">
		<text transform="matrix(1 0 0 1 145.666 103.4038)" class="st13 st11">|</text>
	</g>
	<g class="st9">
		<text transform="matrix(1 0 0 1 149.2471 103.4038)" class="st10 st11">θ</text>
	</g>
	<path class="st9" d="M160.6,105.3V105c0.5-0.1,0.6-0.1,0.6-0.7v-1.5c0-0.6-0.2-1-0.8-1c-0.3,0-0.7,0.2-1,0.5c0,0.1,0,0.2,0,0.4v1.8
		c0,0.6,0.1,0.6,0.6,0.7v0.2h-1.9V105c0.6-0.1,0.6-0.1,0.6-0.7v-1.6c0-0.7-0.2-1-0.8-1c-0.4,0-0.7,0.2-1,0.5v2.1
		c0,0.6,0.1,0.6,0.5,0.7v0.2h-1.9V105c0.6-0.1,0.7-0.1,0.7-0.7v-1.9c0-0.6,0-0.6-0.6-0.7v-0.2c0.4-0.1,0.9-0.2,1.3-0.4v0.7
		c0.2-0.1,0.4-0.3,0.7-0.5c0.2-0.1,0.5-0.2,0.7-0.2c0.4,0,0.8,0.3,1,0.7c0.3-0.2,0.5-0.4,0.7-0.5c0.2-0.1,0.4-0.2,0.7-0.2
		c0.7,0,1.1,0.5,1.1,1.4v1.7c0,0.6,0.1,0.6,0.6,0.7v0.2H160.6z"/>
	<g class="st9">
		<text transform="matrix(1 0 0 1 162.6924 103.4038)" class="st12 st11">)</text>
	</g>
	<g class="st9">
		<text transform="matrix(1 0 0 1 447.168 230.0488)" class="st10 st11">θ</text>
	</g>
	<g class="st9">
		<text transform="matrix(1 0 0 1 32.1758 153.4165)" class="st10 st11">l</text>
	</g>
	<g class="st9">
		<text transform="matrix(1 0 0 1 36.0215 153.4165)" class="st12 st11">(</text>
	</g>
	<g class="st9">
		<text transform="matrix(1 0 0 1 41.041 153.4165)" class="st10 st11">θ</text>
	</g>
	<g class="st9">
		<text transform="matrix(1 0 0 1 47.085 153.4165)" class="st13 st11">|</text>
	</g>
	<g class="st9">
		<text transform="matrix(1 0 0 1 50.6729 153.4165)" class="st10 st11">θ</text>
	</g>
	<path class="st9" d="M62,155.3V155c0.5-0.1,0.6-0.1,0.6-0.7v-1.5c0-0.6-0.2-1-0.8-1c-0.3,0-0.7,0.2-1,0.5c0,0.1,0,0.2,0,0.4v1.8
		c0,0.6,0.1,0.6,0.6,0.7v0.2h-1.9V155c0.6-0.1,0.6-0.1,0.6-0.7v-1.6c0-0.7-0.2-1-0.8-1c-0.4,0-0.7,0.2-1,0.5v2.1
		c0,0.6,0.1,0.6,0.5,0.7v0.2H57V155c0.6-0.1,0.7-0.1,0.7-0.7v-1.9c0-0.6,0-0.6-0.6-0.7v-0.2c0.4-0.1,0.9-0.2,1.3-0.4v0.7
		c0.2-0.1,0.4-0.3,0.7-0.5c0.2-0.1,0.5-0.2,0.7-0.2c0.4,0,0.8,0.3,1,0.7c0.3-0.2,0.5-0.4,0.7-0.5c0.2-0.1,0.4-0.2,0.7-0.2
		c0.7,0,1.1,0.5,1.1,1.4v1.7c0,0.6,0.1,0.6,0.6,0.7v0.2H62z"/>
	<g class="st9">
		<text transform="matrix(1 0 0 1 64.1221 153.4165)" class="st12 st11">)</text>
	</g>
	<g class="st9">
		<text transform="matrix(1 0 0 1 282.9844 238.3311)" class="st10 st11">θ</text>
	</g>
	<path class="st9" d="M294.3,240.2V240c0.5-0.1,0.6-0.1,0.6-0.7v-1.5c0-0.6-0.2-1-0.8-1c-0.3,0-0.7,0.2-1,0.5c0,0.1,0,0.2,0,0.4v1.8
		c0,0.6,0.1,0.6,0.6,0.7v0.2h-1.9V240c0.6-0.1,0.6-0.1,0.6-0.7v-1.6c0-0.7-0.2-1-0.8-1c-0.4,0-0.7,0.2-1,0.5v2.1
		c0,0.6,0.1,0.6,0.5,0.7v0.2h-1.9V240c0.6-0.1,0.7-0.1,0.7-0.7v-1.9c0-0.6,0-0.6-0.6-0.7v-0.2c0.4-0.1,0.9-0.2,1.3-0.4v0.7
		c0.2-0.1,0.4-0.3,0.7-0.5c0.2-0.1,0.5-0.2,0.7-0.2c0.4,0,0.8,0.3,1,0.7c0.3-0.2,0.5-0.4,0.7-0.5c0.2-0.1,0.4-0.2,0.7-0.2
		c0.7,0,1.1,0.5,1.1,1.4v1.7c0,0.6,0.1,0.6,0.6,0.7v0.2H294.3z"/>
	<g class="st9">
		<text transform="matrix(1 0 0 1 320.998 237.8643)" class="st10 st11">θ</text>
	</g>
	<path class="st9" d="M332.3,239.7v-0.2c0.5-0.1,0.6-0.1,0.6-0.7v-1.5c0-0.6-0.2-1-0.8-1c-0.3,0-0.7,0.2-1,0.5c0,0.1,0,0.2,0,0.4
		v1.8c0,0.6,0.1,0.6,0.6,0.7v0.2h-1.9v-0.2c0.6-0.1,0.6-0.1,0.6-0.7v-1.6c0-0.7-0.2-1-0.8-1c-0.4,0-0.7,0.2-1,0.5v2.1
		c0,0.6,0.1,0.6,0.5,0.7v0.2h-1.9v-0.2c0.6-0.1,0.7-0.1,0.7-0.7v-1.9c0-0.6,0-0.6-0.6-0.7V236c0.4-0.1,0.9-0.2,1.3-0.4v0.7
		c0.2-0.1,0.4-0.3,0.7-0.5c0.2-0.1,0.5-0.2,0.7-0.2c0.4,0,0.8,0.3,1,0.7c0.3-0.2,0.5-0.4,0.7-0.5c0.2-0.1,0.4-0.2,0.7-0.2
		c0.7,0,1.1,0.5,1.1,1.4v1.7c0,0.6,0.1,0.6,0.6,0.7v0.2H332.3z"/>
	<g class="st9">
		<text transform="matrix(1 0 0 1 334.4414 239.7295)" class="st14 st15">+1</text>
	</g>
	<g class="st9">
		<text transform="matrix(1 0 0 1 28.4111 262.8682)" class="st12 st11">Figure</text>
	</g>
	<g class="st9">
		<text transform="matrix(1 0 0 1 70.0938 262.8682)" class="st12 st11">2:</text>
	</g>
	<g class="st9">
		<text transform="matrix(1 0 0 1 87.877 262.8682)" class="st12 st11">Graphical</text>
	</g>
	<g class="st9">
		<text transform="matrix(1 0 0 1 148.4277 262.8682)" class="st12 st11">interpretation</text>
	</g>
	<g class="st9">
		<text transform="matrix(1 0 0 1 231.8359 262.8682)" class="st12 st11">of</text>
	</g>
	<g class="st9">
		<text transform="matrix(1 0 0 1 247.5918 262.8682)" class="st12 st11">a</text>
	</g>
	<g class="st9">
		<text transform="matrix(1 0 0 1 259.4062 262.8682)" class="st12 st11">single</text>
	</g>
	<g class="st9">
		<text transform="matrix(1 0 0 1 296.2852 262.8682)" class="st12 st11">iteration</text>
	</g>
	<g class="st9">
		<text transform="matrix(1 0 0 1 349.5762 262.8682)" class="st12 st11">of</text>
	</g>
	<g class="st9">
		<text transform="matrix(1 0 0 1 365.2598 262.8682)" class="st12 st11">the</text>
	</g>
	<g class="st9">
		<text transform="matrix(1 0 0 1 388.6152 262.8682)" class="st12 st11">EM</text>
	</g>
	<g class="st9">
		<text transform="matrix(1 0 0 1 414.4707 262.8682)" class="st12 st11">algorithm:</text>
	</g>
	<g class="st9">
		<text transform="matrix(1 0 0 1 28.4111 278.3945)" class="st12 st11">The</text>
	</g>
	<g class="st9">
		<text transform="matrix(1 0 0 1 57.0176 278.3945)" class="st12 st11">function</text>
	</g>
	<g class="st9">
		<text transform="matrix(1 0 0 1 109.6113 278.3945)" class="st10 st11">l</text>
	</g>
	<g class="st9">
		<text transform="matrix(1 0 0 1 113.46 278.3945)" class="st12 st11">(</text>
	</g>
	<g class="st9">
		<text transform="matrix(1 0 0 1 118.4775 278.3945)" class="st10 st11">θ</text>
	</g>
	<g class="st9">
		<text transform="matrix(1 0 0 1 124.5215 278.3945)" class="st13 st11">|</text>
	</g>
	<g class="st9">
		<text transform="matrix(1 0 0 1 128.1035 278.3945)" class="st10 st11">θ</text>
	</g>
	<path class="st9" d="M139.4,280.3V280c0.5-0.1,0.6-0.1,0.6-0.7v-1.5c0-0.6-0.2-1-0.8-1c-0.3,0-0.7,0.2-1,0.5c0,0.1,0,0.2,0,0.4v1.8
		c0,0.6,0.1,0.6,0.6,0.7v0.2h-1.9V280c0.6-0.1,0.6-0.1,0.6-0.7v-1.6c0-0.7-0.2-1-0.8-1c-0.4,0-0.7,0.2-1,0.5v2.1
		c0,0.6,0.1,0.6,0.5,0.7v0.2h-1.9V280c0.6-0.1,0.7-0.1,0.7-0.7v-1.9c0-0.6,0-0.6-0.6-0.7v-0.2c0.4-0.1,0.9-0.2,1.3-0.4v0.7
		c0.2-0.1,0.4-0.3,0.7-0.5c0.2-0.1,0.5-0.2,0.7-0.2c0.4,0,0.8,0.3,1,0.7c0.3-0.2,0.5-0.4,0.7-0.5c0.2-0.1,0.4-0.2,0.7-0.2
		c0.7,0,1.1,0.5,1.1,1.4v1.7c0,0.6,0.1,0.6,0.6,0.7v0.2H139.4z"/>
	<g class="st9">
		<text transform="matrix(1 0 0 1 141.5527 278.3945)" class="st12 st11">)</text>
	</g>
	<g class="st9">
		<text transform="matrix(1 0 0 1 152.9697 278.3945)" class="st12 st11">is</text>
	</g>
	<g class="st9">
		<text transform="matrix(1 0 0 1 168.0352 278.3945)" class="st12 st11">bounded</text>
	</g>
	<g class="st9">
		<text transform="matrix(1 0 0 1 222.4258 278.3945)" class="st12 st11">above</text>
	</g>
	<g class="st9">
		<text transform="matrix(1 0 0 1 261.416 278.3945)" class="st12 st11">by</text>
	</g>
	<g class="st9">
		<text transform="matrix(1 0 0 1 281.7812 278.3945)" class="st12 st11">the</text>
	</g>
	<g class="st9">
		<text transform="matrix(1 0 0 1 306.0918 278.3945)" class="st12 st11">likelihood</text>
	</g>
	<g class="st9">
		<text transform="matrix(1 0 0 1 366.5703 278.3945)" class="st12 st11">function</text>
	</g>
	<g class="st9">
		<text transform="matrix(1 0 0 1 419.1738 278.3945)" class="st10 st11">L</text>
	</g>
	<g class="st9">
		<text transform="matrix(1 0 0 1 427.9512 278.3945)" class="st12 st11">(</text>
	</g>
	<g class="st9">
		<text transform="matrix(1 0 0 1 432.9668 278.3945)" class="st10 st11">θ</text>
	</g>
	<g class="st9">
		<text transform="matrix(1 0 0 1 439.0117 278.3945)" class="st12 st11">).</text>
	</g>
	<g class="st9">
		<text transform="matrix(1 0 0 1 454.0049 278.3945)" class="st12 st11">The</text>
	</g>
	<g class="st9">
		<text transform="matrix(1 0 0 1 28.4111 290.3359)" class="st12 st11">functions</text>
	</g>
	<g class="st9">
		<text transform="matrix(1 0 0 1 82.624 290.3359)" class="st12 st11">are</text>
	</g>
	<g class="st9">
		<text transform="matrix(1 0 0 1 102.7764 290.3359)" class="st12 st11">equal</text>
	</g>
	<g class="st9">
		<text transform="matrix(1 0 0 1 135.4219 290.3359)" class="st12 st11">at</text>
	</g>
	<g class="st9">
		<text transform="matrix(1 0 0 1 149.8164 290.3359)" class="st10 st11">θ</text>
	</g>
	<g class="st9">
		<text transform="matrix(1 0 0 1 158.793 290.3359)" class="st12 st11">=</text>
	</g>
	<g class="st9">
		<text transform="matrix(1 0 0 1 171.749 290.3359)" class="st10 st11">θ</text>
	</g>
	<path class="st9" d="M183.1,292.2V292c0.5-0.1,0.6-0.1,0.6-0.7v-1.5c0-0.6-0.2-1-0.8-1c-0.3,0-0.7,0.2-1,0.5c0,0.1,0,0.2,0,0.4v1.8
		c0,0.6,0.1,0.6,0.6,0.7v0.2h-1.9V292c0.6-0.1,0.6-0.1,0.6-0.7v-1.6c0-0.7-0.2-1-0.8-1c-0.4,0-0.7,0.2-1,0.5v2.1
		c0,0.6,0.1,0.6,0.5,0.7v0.2H178V292c0.6-0.1,0.7-0.1,0.7-0.7v-1.9c0-0.6,0-0.6-0.6-0.7v-0.2c0.4-0.1,0.9-0.2,1.3-0.4v0.7
		c0.2-0.1,0.4-0.3,0.7-0.5c0.2-0.1,0.5-0.2,0.7-0.2c0.4,0,0.8,0.3,1,0.7c0.3-0.2,0.5-0.4,0.7-0.5c0.2-0.1,0.4-0.2,0.7-0.2
		c0.7,0,1.1,0.5,1.1,1.4v1.7c0,0.6,0.1,0.6,0.6,0.7v0.2H183.1z"/>
	<g class="st9">
		<text transform="matrix(1 0 0 1 185.1904 290.3359)" class="st12 st11">.</text>
	</g>
	<g class="st9">
		<text transform="matrix(1 0 0 1 191.707 290.3359)" class="st12 st11">The</text>
	</g>
	<g class="st9">
		<text transform="matrix(1 0 0 1 216.834 290.3359)" class="st12 st11">EM</text>
	</g>
	<g class="st9">
		<text transform="matrix(1 0 0 1 240.3545 290.3359)" class="st12 st11">algorithm</text>
	</g>
	<g class="st9">
		<text transform="matrix(1 0 0 1 297.7559 290.3359)" class="st12 st11">chooses</text>
	</g>
	<g class="st9">
		<text transform="matrix(1 0 0 1 342.3691 290.3359)" class="st10 st11">θ</text>
	</g>
	<path class="st9" d="M353.7,292.2V292c0.5-0.1,0.6-0.1,0.6-0.7v-1.5c0-0.6-0.2-1-0.8-1c-0.3,0-0.7,0.2-1,0.5c0,0.1,0,0.2,0,0.4v1.8
		c0,0.6,0.1,0.6,0.6,0.7v0.2h-1.9V292c0.6-0.1,0.6-0.1,0.6-0.7v-1.6c0-0.7-0.2-1-0.8-1c-0.4,0-0.7,0.2-1,0.5v2.1
		c0,0.6,0.1,0.6,0.5,0.7v0.2h-1.9V292c0.6-0.1,0.7-0.1,0.7-0.7v-1.9c0-0.6,0-0.6-0.6-0.7v-0.2c0.4-0.1,0.9-0.2,1.3-0.4v0.7
		c0.2-0.1,0.4-0.3,0.7-0.5c0.2-0.1,0.5-0.2,0.7-0.2c0.4,0,0.8,0.3,1,0.7c0.3-0.2,0.5-0.4,0.7-0.5c0.2-0.1,0.4-0.2,0.7-0.2
		c0.7,0,1.1,0.5,1.1,1.4v1.7c0,0.6,0.1,0.6,0.6,0.7v0.2H353.7z"/>
	<g class="st9">
		<text transform="matrix(1 0 0 1 355.8164 292.1973)" class="st14 st15">+1</text>
	</g>
	<g class="st9">
		<text transform="matrix(1 0 0 1 370.9199 290.3359)" class="st12 st11">as</text>
	</g>
	<g class="st9">
		<text transform="matrix(1 0 0 1 385.3691 290.3359)" class="st12 st11">the</text>
	</g>
	<g class="st9">
		<text transform="matrix(1 0 0 1 406.1992 290.3359)" class="st12 st11">value</text>
	</g>
	<g class="st9">
		<text transform="matrix(1 0 0 1 438.8584 290.3359)" class="st12 st11">of</text>
	</g>
	<g class="st9">
		<text transform="matrix(1 0 0 1 452.1758 290.3359)" class="st10 st11">θ</text>
	</g>
	<g class="st9">
		<text transform="matrix(1 0 0 1 28.4111 305.8613)" class="st12 st11">for</text>
	</g>
	<g class="st9">
		<text transform="matrix(1 0 0 1 46.7734 305.8613)" class="st12 st11">which</text>
	</g>
	<g class="st9">
		<text transform="matrix(1 0 0 1 82.6533 305.8613)" class="st10 st11">l</text>
	</g>
	<g class="st9">
		<text transform="matrix(1 0 0 1 86.498 305.8613)" class="st12 st11">(</text>
	</g>
	<g class="st9">
		<text transform="matrix(1 0 0 1 91.5137 305.8613)" class="st10 st11">θ</text>
	</g>
	<g class="st9">
		<text transform="matrix(1 0 0 1 97.5625 305.8613)" class="st13 st11">|</text>
	</g>
	<g class="st9">
		<text transform="matrix(1 0 0 1 101.1436 305.8613)" class="st10 st11">θ</text>
	</g>
	<path class="st9" d="M112.5,307.7v-0.2c0.5-0.1,0.6-0.1,0.6-0.7v-1.5c0-0.6-0.2-1-0.8-1c-0.3,0-0.7,0.2-1,0.5c0,0.1,0,0.2,0,0.4
		v1.8c0,0.6,0.1,0.6,0.6,0.7v0.2H110v-0.2c0.6-0.1,0.6-0.1,0.6-0.7v-1.6c0-0.7-0.2-1-0.8-1c-0.4,0-0.7,0.2-1,0.5v2.1
		c0,0.6,0.1,0.6,0.5,0.7v0.2h-1.9v-0.2c0.6-0.1,0.7-0.1,0.7-0.7v-1.9c0-0.6,0-0.6-0.6-0.7V304c0.4-0.1,0.9-0.2,1.3-0.4v0.7
		c0.2-0.1,0.4-0.3,0.7-0.5c0.2-0.1,0.5-0.2,0.7-0.2c0.4,0,0.8,0.3,1,0.7c0.3-0.2,0.5-0.4,0.7-0.5c0.2-0.1,0.4-0.2,0.7-0.2
		c0.7,0,1.1,0.5,1.1,1.4v1.7c0,0.6,0.1,0.6,0.6,0.7v0.2H112.5z"/>
	<g class="st9">
		<text transform="matrix(1 0 0 1 114.5889 305.8613)" class="st12 st11">)</text>
	</g>
	<g class="st9">
		<text transform="matrix(1 0 0 1 122.5312 305.8613)" class="st12 st11">is</text>
	</g>
	<g class="st9">
		<text transform="matrix(1 0 0 1 134.1191 305.8613)" class="st12 st11">a</text>
	</g>
	<g class="st9">
		<text transform="matrix(1 0 0 1 143.4971 305.8613)" class="st12 st11">maximum.</text>
	</g>
	<g class="st9">
		<text transform="matrix(1 0 0 1 206.2295 305.8613)" class="st12 st11">Since</text>
	</g>
	<g class="st9">
		<text transform="matrix(1 0 0 1 238.5322 305.8613)" class="st10 st11">L</text>
	</g>
	<g class="st9">
		<text transform="matrix(1 0 0 1 247.3096 305.8613)" class="st12 st11">(</text>
	</g>
	<g class="st9">
		<text transform="matrix(1 0 0 1 252.3262 305.8613)" class="st10 st11">θ</text>
	</g>
	<g class="st9">
		<text transform="matrix(1 0 0 1 258.3711 305.8613)" class="st12 st11">)</text>
	</g>
	<g class="st9">
		<text transform="matrix(1 0 0 1 266.3125 305.8613)" class="st13 st11">≥</text>
	</g>
	<g class="st9">
		<text transform="matrix(1 0 0 1 279.2695 305.8613)" class="st10 st11">l</text>
	</g>
	<g class="st9">
		<text transform="matrix(1 0 0 1 283.1152 305.8613)" class="st12 st11">(</text>
	</g>
	<g class="st9">
		<text transform="matrix(1 0 0 1 288.1328 305.8613)" class="st10 st11">θ</text>
	</g>
	<g class="st9">
		<text transform="matrix(1 0 0 1 294.1797 305.8613)" class="st13 st11">|</text>
	</g>
	<g class="st9">
		<text transform="matrix(1 0 0 1 297.7676 305.8613)" class="st10 st11">θ</text>
	</g>
	<path class="st9" d="M309.1,307.7v-0.2c0.5-0.1,0.6-0.1,0.6-0.7v-1.5c0-0.6-0.2-1-0.8-1c-0.3,0-0.7,0.2-1,0.5c0,0.1,0,0.2,0,0.4
		v1.8c0,0.6,0.1,0.6,0.6,0.7v0.2h-1.9v-0.2c0.6-0.1,0.6-0.1,0.6-0.7v-1.6c0-0.7-0.2-1-0.8-1c-0.4,0-0.7,0.2-1,0.5v2.1
		c0,0.6,0.1,0.6,0.5,0.7v0.2h-1.9v-0.2c0.6-0.1,0.7-0.1,0.7-0.7v-1.9c0-0.6,0-0.6-0.6-0.7V304c0.4-0.1,0.9-0.2,1.3-0.4v0.7
		c0.2-0.1,0.4-0.3,0.7-0.5c0.2-0.1,0.5-0.2,0.7-0.2c0.4,0,0.8,0.3,1,0.7c0.3-0.2,0.5-0.4,0.7-0.5c0.2-0.1,0.4-0.2,0.7-0.2
		c0.7,0,1.1,0.5,1.1,1.4v1.7c0,0.6,0.1,0.6,0.6,0.7v0.2H309.1z"/>
	<g class="st9">
		<text transform="matrix(1 0 0 1 311.2051 305.8613)" class="st12 st11">)</text>
	</g>
	<g class="st9">
		<text transform="matrix(1 0 0 1 319.1445 305.8613)" class="st12 st11">increasing</text>
	</g>
	<g class="st9">
		<text transform="matrix(1 0 0 1 378.0547 305.8613)" class="st10 st11">l</text>
	</g>
	<g class="st9">
		<text transform="matrix(1 0 0 1 381.8906 305.8613)" class="st12 st11">(</text>
	</g>
	<g class="st9">
		<text transform="matrix(1 0 0 1 386.9062 305.8613)" class="st10 st11">θ</text>
	</g>
	<g class="st9">
		<text transform="matrix(1 0 0 1 392.9648 305.8613)" class="st13 st11">|</text>
	</g>
	<g class="st9">
		<text transform="matrix(1 0 0 1 396.541 305.8613)" class="st10 st11">θ</text>
	</g>
	<path class="st9" d="M407.9,307.7v-0.2c0.5-0.1,0.6-0.1,0.6-0.7v-1.5c0-0.6-0.2-1-0.8-1c-0.3,0-0.7,0.2-1,0.5c0,0.1,0,0.2,0,0.4
		v1.8c0,0.6,0.1,0.6,0.6,0.7v0.2h-1.9v-0.2c0.6-0.1,0.6-0.1,0.6-0.7v-1.6c0-0.7-0.2-1-0.8-1c-0.4,0-0.7,0.2-1,0.5v2.1
		c0,0.6,0.1,0.6,0.5,0.7v0.2h-1.9v-0.2c0.6-0.1,0.7-0.1,0.7-0.7v-1.9c0-0.6,0-0.6-0.6-0.7V304c0.4-0.1,0.9-0.2,1.3-0.4v0.7
		c0.2-0.1,0.4-0.3,0.7-0.5c0.2-0.1,0.5-0.2,0.7-0.2c0.4,0,0.8,0.3,1,0.7c0.3-0.2,0.5-0.4,0.7-0.5c0.2-0.1,0.4-0.2,0.7-0.2
		c0.7,0,1.1,0.5,1.1,1.4v1.7c0,0.6,0.1,0.6,0.6,0.7v0.2H407.9z"/>
	<g class="st9">
		<text transform="matrix(1 0 0 1 409.9902 305.8613)" class="st12 st11">)</text>
	</g>
	<g class="st9">
		<text transform="matrix(1 0 0 1 417.9326 305.8613)" class="st12 st11">ensures</text>
	</g>
	<g class="st9">
		<text transform="matrix(1 0 0 1 28.4111 317.8037)" class="st12 st11">that</text>
	</g>
	<g class="st9">
		<text transform="matrix(1 0 0 1 54.9707 317.8037)" class="st12 st11">the</text>
	</g>
	<g class="st9">
		<text transform="matrix(1 0 0 1 75.8057 317.8037)" class="st12 st11">value</text>
	</g>
	<g class="st9">
		<text transform="matrix(1 0 0 1 108.4658 317.8037)" class="st12 st11">of</text>
	</g>
	<g class="st9">
		<text transform="matrix(1 0 0 1 121.793 317.8037)" class="st12 st11">the</text>
	</g>
	<g class="st9">
		<text transform="matrix(1 0 0 1 142.625 317.8037)" class="st12 st11">likelihood</text>
	</g>
	<g class="st9">
		<text transform="matrix(1 0 0 1 199.6143 317.8037)" class="st12 st11">function</text>
	</g>
	<g class="st9">
		<text transform="matrix(1 0 0 1 248.7383 317.8037)" class="st10 st11">L</text>
	</g>
	<g class="st9">
		<text transform="matrix(1 0 0 1 257.5254 317.8037)" class="st12 st11">(</text>
	</g>
	<g class="st9">
		<text transform="matrix(1 0 0 1 262.543 317.8037)" class="st10 st11">θ</text>
	</g>
	<g class="st9">
		<text transform="matrix(1 0 0 1 268.582 317.8037)" class="st12 st11">)</text>
	</g>
	<g class="st9">
		<text transform="matrix(1 0 0 1 276.5254 317.8037)" class="st12 st11">is</text>
	</g>
	<g class="st9">
		<text transform="matrix(1 0 0 1 288.1113 317.8037)" class="st12 st11">increased</text>
	</g>
	<g class="st9">
		<text transform="matrix(1 0 0 1 342.7227 317.8037)" class="st12 st11">at</text>
	</g>
	<g class="st9">
		<text transform="matrix(1 0 0 1 357.1133 317.8037)" class="st12 st11">each</text>
	</g>
	<g class="st9">
		<text transform="matrix(1 0 0 1 385.1074 317.8037)" class="st12 st11">step.</text>
	</g>
</g>
</svg>
