<?xml version="1.0" encoding="iso-8859-1"?>
<!-- Generator: Adobe Illustrator 19.0.0, SVG Export Plug-In . SVG Version: 6.00 Build 0)  -->
<svg version="1.1" id="Layer_1" xmlns="http://www.w3.org/2000/svg" xmlns:xlink="http://www.w3.org/1999/xlink" x="0px" y="0px"
	 viewBox="0 0 512 512" style="enable-background:new 0 0 512 512;" xml:space="preserve">
<g>
	<g>
		<g>
			<path d="M256.006,0H42.652C19.091,0,0.006,19.111,0.006,42.667v42.54C0.006,85.249,0,85.29,0,85.333s0.006,0.084,0.006,0.127
				v277.08c0,0.043-0.006,0.084-0.006,0.127s0.006,0.084,0.006,0.127v106.54C0.006,492.889,19.091,512,42.652,512h213.355
				c8.311,0,16.063-2.387,22.623-6.5c0.136-0.083,0.275-0.155,0.41-0.241c0.162-0.104,0.313-0.219,0.472-0.325
				c0.346-0.229,0.685-0.465,1.024-0.704c0.333-0.234,0.669-0.464,0.994-0.707c0.032-0.024,0.062-0.05,0.094-0.074
				c0.976-0.732,1.908-1.508,2.809-2.311c0.12-0.107,0.241-0.212,0.359-0.32c0.451-0.411,0.89-0.831,1.32-1.259
				c0.05-0.05,0.099-0.1,0.149-0.15c3.766-3.779,6.761-8.2,8.864-13.042c0.099-0.227,0.199-0.454,0.294-0.683
				c0.177-0.429,0.348-0.861,0.511-1.296c0.134-0.355,0.26-0.714,0.385-1.073c0.124-0.359,0.251-0.717,0.366-1.08
				c0.222-0.7,0.428-1.407,0.615-2.122c0.012-0.047,0.027-0.093,0.039-0.14c0.204-0.793,0.378-1.597,0.537-2.406
				c0.034-0.176,0.063-0.353,0.095-0.53c0.121-0.665,0.228-1.335,0.318-2.01c0.024-0.18,0.047-0.36,0.069-0.54
				c0.088-0.73,0.158-1.466,0.208-2.207c0.007-0.104,0.017-0.207,0.024-0.312c0.053-0.872,0.089-1.749,0.089-2.634V42.667
				C298.673,19.109,279.564,0,256.006,0z M42.673,106.667h213.333v149.206c0,0.043-0.006,0.084-0.006,0.127v21.333
				c0,0.043,0.006,0.084,0.006,0.127v63.873H42.673V106.667z M256.006,42.667V64H42.673V42.667H256.006z M42.673,384H256
				c0,0.043,0.006,0.084,0.006,0.127v85.079c0,0.043-0.006,0.084-0.006,0.127H42.673V384z"/>
			<path d="M149.333,405.333c-11.776,0-21.333,9.557-21.333,21.333S137.557,448,149.333,448s21.333-9.557,21.333-21.333
				S161.109,405.333,149.333,405.333z"/>
			<path d="M426.667,320c-11.797,0-21.333,9.536-21.333,21.333v21.333c0,11.797,9.536,21.333,21.333,21.333S448,374.464,448,362.667
				v-21.333C448,329.536,438.464,320,426.667,320z"/>
			<path d="M490.667,280.405c-11.797,0-21.333,9.536-21.333,21.333v21.333c0,11.776,9.536,21.333,21.333,21.333
				S512,334.848,512,323.072v-21.333C512,289.941,502.464,280.405,490.667,280.405z"/>
			<path d="M490.667,387.072c-11.797,0-21.333,9.536-21.333,21.333v21.333c0,11.776,9.536,21.333,21.333,21.333
				S512,441.515,512,429.739v-21.333C512,396.608,502.464,387.072,490.667,387.072z"/>
			<path d="M469.333,256c11.797,0,21.333-9.536,21.333-21.333c0-11.797-9.536-21.333-21.333-21.333H448
				c-3.893,0-7.528,1.055-10.667,2.87c-3.139-1.815-6.774-2.87-10.667-2.87c-11.797,0-21.333,9.536-21.333,21.333V256
				c0,11.797,9.536,21.333,21.333,21.333S448,267.797,448,256H469.333z"/>
			<path d="M350.485,469.333h-21.333c-11.797,0-21.333,9.536-21.333,21.333S317.355,512,329.152,512h21.333
				c11.776,0,21.333-9.536,21.333-21.333S362.261,469.333,350.485,469.333z"/>
			<path d="M362.667,213.333h-21.333c-11.797,0-21.333,9.536-21.333,21.333c0,11.797,9.536,21.333,21.333,21.333h21.333
				c11.797,0,21.333-9.536,21.333-21.333C384,222.869,374.464,213.333,362.667,213.333z"/>
			<path d="M457.152,469.333H448V448c0-11.797-9.536-21.333-21.333-21.333s-21.333,9.536-21.333,21.333v21.333
				c0,7.406,3.76,13.917,9.476,17.741c-0.198,1.17-0.324,2.365-0.324,3.592c0,11.797,9.536,21.333,21.333,21.333h21.333
				c11.776,0,21.333-9.536,21.333-21.333S468.928,469.333,457.152,469.333z"/>
			<path d="M362.667,64c26.517,0,39.589,10.142,42.174,33.338l-5.756-5.756c-8.331-8.331-21.839-8.331-30.17,0
				c-8.331,8.331-8.331,21.839,0,30.17l42.667,42.667c0.004,0.004,0.008,0.006,0.011,0.01c0.494,0.493,1.012,0.96,1.552,1.403
				c0.247,0.203,0.507,0.379,0.761,0.569c0.303,0.227,0.6,0.462,0.915,0.673c0.304,0.203,0.619,0.379,0.93,0.565
				c0.286,0.171,0.565,0.35,0.86,0.508c0.317,0.17,0.643,0.313,0.967,0.466c0.308,0.145,0.61,0.299,0.925,0.43
				c0.314,0.13,0.635,0.235,0.953,0.349c0.338,0.122,0.672,0.251,1.018,0.356c0.318,0.096,0.642,0.167,0.964,0.248
				c0.353,0.089,0.701,0.188,1.061,0.259c0.372,0.074,0.748,0.117,1.122,0.171c0.314,0.045,0.622,0.105,0.941,0.136
				c0.693,0.068,1.388,0.105,2.083,0.105c0.007,0,0.015,0.001,0.022,0.001s0.015-0.001,0.022-0.001
				c0.695-0.001,1.39-0.037,2.083-0.105c0.318-0.031,0.627-0.091,0.941-0.136c0.375-0.054,0.75-0.097,1.122-0.171
				c0.359-0.071,0.708-0.17,1.061-0.259c0.322-0.081,0.645-0.152,0.964-0.248c0.346-0.105,0.68-0.234,1.018-0.356
				c0.318-0.114,0.639-0.219,0.953-0.349c0.315-0.131,0.618-0.284,0.925-0.43c0.324-0.153,0.65-0.296,0.967-0.466
				c0.294-0.158,0.574-0.337,0.86-0.508c0.311-0.186,0.627-0.362,0.93-0.565c0.315-0.211,0.612-0.446,0.915-0.673
				c0.254-0.19,0.514-0.366,0.761-0.569c0.54-0.443,1.059-0.91,1.552-1.403c0.004-0.004,0.008-0.006,0.011-0.01l42.667-42.667
				c8.331-8.331,8.331-21.839,0-30.17c-8.331-8.331-21.839-8.331-30.17,0l-6.549,6.549c-3.265-48.245-34.543-76.798-85.032-76.798
				c-11.782,0-21.333,9.551-21.333,21.333C341.333,54.449,350.885,64,362.667,64z"/>
		</g>
	</g>
</g>
<g>
</g>
<g>
</g>
<g>
</g>
<g>
</g>
<g>
</g>
<g>
</g>
<g>
</g>
<g>
</g>
<g>
</g>
<g>
</g>
<g>
</g>
<g>
</g>
<g>
</g>
<g>
</g>
<g>
</g>
</svg>
